<mxfile host="app.diagrams.net" modified="2023-11-22T13:54:38.449Z" agent="Mozilla/5.0 (Windows NT 10.0; Win64; x64) AppleWebKit/537.36 (KHTML, like Gecko) Chrome/118.0.0.0 Safari/537.36 Edg/118.0.2088.69" version="22.1.3" etag="PghQhD9FCVl_3Qq05WTj" type="github">
  <diagram name="Page-1" id="jxXhUcFynYkiDxgHYVDg">
    <mxGraphModel>
      <root>
        <mxCell id="0" />
        <mxCell id="1" parent="0" />
      </root>
    </mxGraphModel>
  </diagram>
</mxfile>
